<?xml version="1.0" encoding="utf-8"?>
<!-- Generator: Adobe Illustrator 26.0.2, SVG Export Plug-In . SVG Version: 6.00 Build 0)  -->
<svg version="1.1" id="Capa_1" xmlns="http://www.w3.org/2000/svg" xmlns:xlink="http://www.w3.org/1999/xlink" x="0px" y="0px"
	 viewBox="0 0 491.4 491.4" style="enable-background:new 0 0 491.4 491.4;" xml:space="preserve">
<style type="text/css">
	.st0{fill:#F5F5F5;}
</style>
<g>
	<g>
		<path class="st0" d="M277.4,2.1c-3.5-0.5-7,0.6-9.7,3c-2.6,2.3-4.2,5.7-4.2,9.2v112.2c0,5.6,3.8,10.5,9.3,11.9
			c49.2,12.4,83.6,56.5,83.6,107.4c0,7.2-0.7,14.5-2.1,21.6c-1.1,5.5,1.7,11,6.8,13.4L462.5,329c1.7,0.8,3.5,1.2,5.3,1.2
			c1.6,0,3.3-0.3,4.8-1c3.2-1.4,5.7-4.1,6.8-7.5c8-24.5,12-50.1,12-75.9C491.4,122.6,399.4,17.9,277.4,2.1z M443.6,292.8l-54.7-26
			c-5.2-2.5-8.5-7.9-8.1-13.7c0.1-2.5,0.2-4.9,0.2-7.4c0-55.6-33.8-104.7-84.1-125.2c-5.3-2.2-8.8-7.4-8.8-13.2V46.7
			c0-9.4,9-16.3,18.1-13.8c93.6,26.6,160.7,112.9,160.7,212.7c0,12.3-1.1,24.6-3.1,36.7C462.3,291.6,452.2,296.8,443.6,292.8z"/>
		<path class="st0" d="M214,2.1C92,17.8,0,122.5,0,245.7c0,123.1,92,227.8,214,243.6c0.5,0.1,1,0.1,1.6,0.1c3,0,5.8-1.1,8.1-3.1
			c2.6-2.3,4.2-5.7,4.2-9.2V364.9c0-5.6-3.8-10.5-9.3-11.9c-49.2-12.4-83.6-56.5-83.6-107.4c0-50.8,34.4-95,83.6-107.4
			c5.4-1.4,9.3-6.3,9.3-11.9v-112c0-3.5-1.5-6.9-4.2-9.2C221,2.8,217.5,1.7,214,2.1z M203.3,107.3c0,5.7-3.4,11-8.7,13.2
			c-50.3,20.5-84.2,69.6-84.2,125.2c0,55.6,33.8,104.7,84.1,125.2c5.3,2.2,8.8,7.4,8.8,13.2v60.6c0,9.4-9,16.3-18.1,13.8
			C91.6,431.8,24.5,345.4,24.5,245.7c0-99.8,67.2-186.2,160.7-212.7c9.1-2.6,18.1,4.3,18.1,13.8V107.3z"/>
		<path class="st0" d="M447.1,361.1L345.7,313c-5.1-2.4-11.1-1.1-14.7,3.3c-14.9,18-35.6,31.1-58.2,36.8c-5.4,1.4-9.3,6.3-9.3,11.9
			v112.2c0,3.5,1.5,6.9,4.2,9.2c2.2,2,5.1,3.1,8.1,3.1c0.5,0,1,0,1.6-0.1c71.6-9.2,135.3-49.5,174.7-110.4c1.9-3,2.5-6.6,1.5-10
			C452.6,365.5,450.2,362.7,447.1,361.1z M288.1,444.6V384c0-5.8,3.5-11,8.8-13.2c14.6-6,28.1-14.6,39.8-25.3
			c4.3-3.9,10.5-4.8,15.7-2.3l54.7,26c8.6,4.1,10.8,15.2,4.6,22.3c-28.1,32.1-64.7,55.2-105.5,66.8
			C297.2,460.9,288.1,454.1,288.1,444.6z"/>
	</g>
</g>
</svg>
