<?xml version="1.0" encoding="utf-8"?>
<svg version="1.1" id="Layer_1" xmlns="http://www.w3.org/2000/svg" xmlns:xlink="http://www.w3.org/1999/xlink" x="0px" y="0px"
	 viewBox="0 0 512 512" style="enable-background:new 0 0 512 512;" xml:space="preserve">
<style type="text/css">
	.st0{fill:#F5F5F5;}
</style>
<g>
	<g>
		<g>
			<path class="st0" d="M256,42.7C256,42.7,256,42.7,256,42.7C256,42.7,256,42.7,256,42.7C256,42.7,256,42.7,256,42.7
				c-70.7,0-134.7,28.6-181,74.9c0,0,0,0-0.1,0c0,0,0,0,0,0.1C28.7,164,0.1,227.9,0,298.4c0,0.1,0,0.1,0,0.2c0,0.1,0,0.1,0,0.2
				c0.1,60.2,21,117.2,58.5,162.7c4.1,4.9,10.1,7.7,16.4,7.7h362c6.4,0,12.4-2.8,16.4-7.7c37.6-45.5,58.5-102.6,58.5-162.9
				C512,157.3,397.4,42.7,256,42.7z M426.7,426.7H85.3C62,395.7,47.6,359,43.7,320h62.9c11.8,0,21.3-9.6,21.3-21.3
				s-9.6-21.3-21.3-21.3H43.7C48,234.4,65,195.3,90.8,163.7l14.3,14.3c8.3,8.3,21.8,8.3,30.2,0c8.3-8.3,8.3-21.8,0-30.2L121,133.5
				c31.6-25.9,70.8-42.8,113.7-47.1v62.9c0,11.8,9.6,21.3,21.3,21.3c11.8,0,21.3-9.6,21.3-21.3V86.4c42.9,4.3,82.1,21.2,113.7,47.1
				l-14.3,14.3c-8.3,8.3-8.3,21.8,0,30.2s21.8,8.3,30.2,0l14.3-14.3c25.9,31.6,42.8,70.8,47.1,113.7h-63c-11.8,0-21.3,9.6-21.3,21.3
				s9.6,21.3,21.3,21.3h63C464.4,359,450,395.7,426.7,426.7z"/>
			<polygon class="st0" points="320,220.7 199.3,281 259.7,341.3 			"/>
			<path class="st0" d="M320,362.7H192c-11.8,0-21.3,9.6-21.3,21.3s9.6,21.3,21.3,21.3h128c11.8,0,21.3-9.6,21.3-21.3
				S331.8,362.7,320,362.7z"/>
		</g>
	</g>
</g>
</svg>
