<?xml version="1.0" encoding="utf-8"?>
<!-- Generator: Adobe Illustrator 26.0.2, SVG Export Plug-In . SVG Version: 6.00 Build 0)  -->
<svg version="1.1" id="Layer_1" xmlns="http://www.w3.org/2000/svg" xmlns:xlink="http://www.w3.org/1999/xlink" x="0px" y="0px"
	 viewBox="0 0 512 512" style="enable-background:new 0 0 512 512;" xml:space="preserve">
<style type="text/css">
	.st0{opacity:0.3;}
</style>
<g class="st0">
	<g>
		<path d="M390.7,303.4c-7.5,0-14.8,0.8-21.9,2.3c-17.7-28-42.3-51-71.4-66.6c20.6-26.4,31.9-60.3,31.9-96.2
			c0-37.6-12.4-73.1-34.9-99.9C271.3,15.2,240.2,0,207,0c-33.3,0-64.3,15.2-87.5,42.9C97,69.7,84.6,105.2,84.6,142.8
			c0,35.9,11.3,69.9,31.9,96.2C62.5,268,25.3,321.2,17.3,382.8c-1.4,10.5,1.9,21,8.8,28.9c7,7.9,17,12.4,27.5,12.4h234.1
			c7.9,49.7,51.1,87.8,103,87.8c57.5,0,104.3-46.8,104.3-104.3S448.3,303.4,390.7,303.4z M207,33c49.3,0,89.5,49.3,89.5,109.9
			c0,65.7-44.5,109.9-89.6,109.9c-47.6-0.1-89.3-47.5-89.3-109.9C117.5,82.2,157.7,33,207,33z M287.7,391.2H53.6
			c-1.1,0-2.1-0.5-2.8-1.2c-0.7-0.8-1-1.9-0.9-2.9c7.1-54.4,41.8-101,91.4-123.5c19.3,14.4,41.8,22.1,65.5,22.2c0.1,0,0.1,0,0.2,0
			s0.1,0,0.2,0c23.5,0,46-7.7,65.5-22.2c26.2,11.9,48.6,30.8,64.9,54.5C311.5,333.4,292.7,360.1,287.7,391.2z M390.7,479
			c-39.4,0-71.4-32-71.4-71.4c0-39.5,32.1-71.4,71.4-71.4c39.4,0,71.4,32,71.4,71.4S430.1,479,390.7,479z"/>
	</g>
</g>
<g class="st0">
	<g>
		<path d="M427.3,391.2h-20.1v-20.1c0-9.1-7.4-16.5-16.5-16.5s-16.5,7.4-16.5,16.5v20.1h-20.1c-9.1,0-16.5,7.4-16.5,16.5
			s7.4,16.5,16.5,16.5h20.1v20.1c0,9.1,7.4,16.5,16.5,16.5s16.5-7.4,16.5-16.5v-20.1h20.1c9.1,0,16.5-7.4,16.5-16.5
			S436.4,391.2,427.3,391.2z"/>
	</g>
</g>
</svg>
