<?xml version="1.0" encoding="utf-8"?>
<svg version="1.1" id="Capa_1" xmlns="http://www.w3.org/2000/svg" xmlns:xlink="http://www.w3.org/1999/xlink" x="0px" y="0px"
	 viewBox="0 0 217.8 217.8" style="enable-background:new 0 0 217.8 217.8;" xml:space="preserve">
<style type="text/css">
	.st0{opacity:0.3;}
	.st1{fill:#000000;}
</style>
<g class="st0">
	<g>
		<path class="st1" d="M187.1,0H36.5C28.6,0,21.8,6.1,21,14L1.3,202c-0.4,4.1,0.9,8.1,3.6,11.1c2.7,3,6.6,4.7,10.7,4.7H202
			c4.1,0,7.9-1.7,10.7-4.6c2.7-2.9,4.1-6.9,3.8-11l-14-188C201.9,6.3,195.1,0,187.1,0z M19.5,199.9l19-182h146.2l13.6,182H19.5z"/>
		<path class="st1" d="M148.3,35.1c-7.8,0-14.2,6.4-14.2,14.2c0,6.8,4.8,12.5,11.2,13.8c-0.6,9.9-3.1,24.5-11.9,33.8
			c-6,6.3-14.3,9.4-24.6,9.1c-10.4-0.3-18.7-4-24.9-10.9c-8.2-9.1-11.1-22.3-12.1-32.1c6.2-1.5,10.8-7.1,10.8-13.7
			c0-7.8-6.4-14.2-14.2-14.2s-14.2,6.4-14.2,14.2c0,6.9,5,12.7,11.5,13.9c1,10.7,4.3,25.4,13.7,35.9c7.3,8.1,17.1,12.5,29.1,12.9
			c0.6,0,1.2,0,1.8,0c11.3,0,20.5-3.7,27.4-11c10.2-10.8,12.9-27.1,13.5-37.9c6.4-1.4,11.1-7.1,11.1-13.8
			C162.5,41.4,156.2,35.1,148.3,35.1z M60.3,49.2c0-4.5,3.7-8.2,8.2-8.2c4.5,0,8.2,3.7,8.2,8.2c0,3.5-2.2,6.5-5.3,7.6
			c-0.2-4.4,0-7.3,0-7.4c0.1-1.6-1.1-3.1-2.7-3.2c-1.7-0.2-3.1,1.1-3.2,2.7c0,0.4-0.2,3.4-0.1,7.8C62.5,55.6,60.3,52.7,60.3,49.2z
			 M151.5,56.8c0-2.7-0.2-4.6-0.2-4.8c-0.1-1.6-1.6-2.8-3.2-2.7c-1.6,0.1-2.9,1.6-2.7,3.2c0,0.1,0.1,1.8,0.2,4.4
			c-3.1-1.2-5.4-4.1-5.4-7.7c0-4.5,3.7-8.2,8.2-8.2s8.2,3.7,8.2,8.2C156.5,52.6,154.5,55.5,151.5,56.8z"/>
	</g>
</g>
</svg>
