<?xml version="1.0" encoding="utf-8"?>
<!-- Generator: Adobe Illustrator 26.0.2, SVG Export Plug-In . SVG Version: 6.00 Build 0)  -->
<svg version="1.1" id="icon" xmlns="http://www.w3.org/2000/svg" xmlns:xlink="http://www.w3.org/1999/xlink" x="0px" y="0px"
	 viewBox="0 0 32 32" style="enable-background:new 0 0 32 32;" xml:space="preserve">
<style type="text/css">
	.st0{fill:#F5F5F5;}
	.st1{fill:none;}
</style>
<rect x="21" y="16" class="st0" width="2" height="2"/>
<rect x="9" y="16" class="st0" width="8" height="2"/>
<rect x="21" y="12" class="st0" width="2" height="2"/>
<rect x="9" y="12" class="st0" width="8" height="2"/>
<rect x="9" y="8" class="st0" width="14" height="2"/>
<path class="st0" d="M25,2H7C5.9,2,5,2.9,5,4v25c0,0.6,0.4,1,1,1h1c0.3,0,0.6-0.1,0.8-0.4l2.2-2.9l2.2,2.9c0.4,0.4,1,0.5,1.5,0.1
	c0.1,0,0.1-0.1,0.1-0.1l2.2-2.9l2.2,2.9c0.4,0.4,1,0.5,1.5,0.1c0.1,0,0.1-0.1,0.1-0.1l2.2-2.9l2.2,2.9c0.2,0.3,0.5,0.4,0.8,0.4h1
	c0.6,0,1-0.4,1-1V4C27,2.9,26.1,2,25,2z M25,27.3l-2.2-2.9c-0.4-0.4-1-0.5-1.5-0.1c-0.1,0-0.1,0.1-0.1,0.1L19,27.3l-2.2-2.9
	c-0.4-0.4-1-0.5-1.5-0.1c-0.1,0-0.1,0.1-0.1,0.1L13,27.3l-2.2-2.9c-0.4-0.4-1-0.5-1.5-0.1c-0.1,0-0.1,0.1-0.1,0.1L7,27.3V4h18V27.3z
	"/>
<rect id="_Transparent_Rectangle_" y="0" class="st1" width="32" height="32"/>
</svg>
