<?xml version="1.0" encoding="utf-8"?>
<svg version="1.1" id="Layer_1" xmlns="http://www.w3.org/2000/svg" xmlns:xlink="http://www.w3.org/1999/xlink" x="0px" y="0px"
	 viewBox="0 0 512 512" style="enable-background:new 0 0 512 512;" xml:space="preserve">
<style type="text/css">
	.st0{opacity:0.3;}
</style>
<g class="st0">
	<g>
		<path d="M397.4,276.9c-3.5-10.8-13.6-18.2-25-18.2l-111.3-0.1l-34.5-105.8c-3.5-10.8-13.6-18.1-25-18.1c-11.4,0-21.5,7.3-25,18.1
			l-34.5,105.8l-111.3,0.1c-11.4,0-21.5,7.3-25,18.2s0.3,22.7,9.5,29.4l90,65.5L71.2,477.6c-3.5,10.8,0.3,22.7,9.5,29.4
			c4.6,3.4,10,5,15.4,5c5.4,0,10.8-1.7,15.4-5l90.1-65.4l90.1,65.4c4.6,3.3,10,5,15.4,5c5.4,0,10.8-1.7,15.4-5
			c9.2-6.7,13.1-18.5,9.6-29.4l-34.3-105.9l90-65.5C397.1,299.6,400.9,287.7,397.4,276.9z M267,361.7l40.2,124l-105.5-76.6
			L96.2,485.7l40.2-124L30.9,285l130.4-0.1l40.4-124l40.4,124l130.4,0.1L267,361.7z"/>
	</g>
</g>
<g class="st0">
	<g>
		<path d="M502.1,94.5c-3.5-10.8-13.6-18.1-25-18.2l-61.2,0L397,18.1C393.5,7.3,383.4,0,372,0c-11.4,0-21.5,7.3-25,18.1l-18.9,58.2
			l-61.2,0c-11.4,0-21.5,7.3-25,18.2c-3.5,10.8,0.3,22.7,9.5,29.4l49.5,36L282.1,218c-3.5,10.8,0.3,22.7,9.6,29.4
			c4.6,3.3,10,5,15.4,5c5.4,0,10.8-1.7,15.4-5l49.5-35.9l49.5,35.9c4.6,3.3,10,5,15.4,5c5.4,0,10.8-1.7,15.4-5
			c9.2-6.7,13.1-18.5,9.6-29.4l-18.9-58.2l49.5-36C501.7,117.2,505.6,105.3,502.1,94.5z M412.2,149.8l24.7,76.3L372,179l-64.9,47.1
			l24.7-76.3l-64.9-47.2l80.2,0L372,26.3l24.8,76.3l80.2,0.1L412.2,149.8z"/>
	</g>
</g>
<g class="st0">
	<g>
		<path d="M161,69.2c-3.5-10.8-13.6-18.1-25-18.2l-21.1,0l-6.5-20c-3.5-10.8-13.6-18.1-25-18.1S62,20.2,58.5,31l-6.5,20l-21,0
			c-11.4,0-21.5,7.3-25,18.1C2.4,80,6.3,91.9,15.5,98.6l17,12.4L26,131c-3.5,10.8,0.3,22.7,9.5,29.4c4.6,3.3,10,5,15.4,5
			c5.4,0,10.8-1.7,15.4-5l17-12.4l17,12.4c4.6,3.3,10,5,15.4,5c5.4,0,10.8-1.7,15.4-5c9.2-6.7,13.1-18.5,9.6-29.4l-6.5-20l17-12.4
			C160.7,91.9,164.5,80,161,69.2z M103.6,100.9l12.4,38.2l-32.5-23.6L51,139.1l12.4-38.2L30.9,77.3l40.1,0l12.4-38.2l12.4,38.2
			l40.1,0L103.6,100.9z"/>
	</g>
</g>
</svg>
